<svg xmlns="http://www.w3.org/2000/svg" version="1.1" xmlns:xlink="http://www.w3.org/1999/xlink" xmlns:svgjs="http://svgjs.dev/svgjs" viewBox="0 0 800 800"><defs><linearGradient x1="50%" y1="0%" x2="50%" y2="100%" id="ccchaos-grad"><stop stop-color="hsl(206, 75%, 49%)" stop-opacity="1" offset="0%"></stop><stop stop-color="hsl(331, 90%, 56%)" stop-opacity="1" offset="100%"></stop></linearGradient></defs><g stroke-width="2" stroke="url(#ccchaos-grad)" fill="none" stroke-linecap="round"><path d="M419.85 103.18C430.19 101.71 440.6 101.12 451.06 101.39 461.5 102.08 471.94 103.64 482.27 106.04 492.5 108.82 502.49 112.38 512.11 116.65 521.44 121.2 530.18 126.37 538.15 132.08 545.6 137.94 552.05 144.22 557.35 150.87 562 157.52 565.43 164.44 567.66 171.57 569.45 178.59 570.35 185.76 570.62 193.06 571.26 200.17 572.03 207.38 573.43 214.67 576.39 221.74 580.83 228.91 587.17 236.17 595.83 243.23 606.57 250.41 619.25 257.71 633.47 264.85 648.52 272.16 663.51 279.64 677.55 286.99 689.56 294.56 698.5 302.36 703.99 310.07 705.3 318.03 702.3 326.26 696.07 334.44 686.87 342.9 675.94 351.66 665.43 360.39 656.23 369.43 649.79 378.78 647.7 388.11 649.95 397.78 656.48 407.76 666.92 417.75 679.22 427.84 691.64 438 703.13 448.17 711.51 458.41 715.72 468.7 715.73 479 710.94 489.34 701.91 499.67 689.81 510 675.49 520.29 660.29 530.5 645.53 540.66 632.14 550.69 620.9 560.5 612.46 570.2 606.79 579.61 603.66 588.66 603.12 597.48 604.17 605.83 606.09 613.61 610.03 624.45 612.54 641.83 609.03 648.07 604.73 651.47 598.64 653.96 590.97 655.54 582.19 656.74 572.25 657.11 561.48 656.7 550.11 656.14 538.34 655.01 526.39 653.41 514.29 652.01 502.26 650.41 490.46 648.77 478.7 647.73 467.23 646.92 456.11 646.46 445.07 646.92 434.36 647.91 423.98 649.48 413.65 652.09 403.62 655.26 393.89 658.93 384.16 663.44 374.93 668.09 366.19 672.71 357.41 677.66 349.08 682.21 341.2 686.18 333.25 689.96 325.71 692.84 318.53 694.72 311.22 696.02 304.2 696.13 297.41 695.04 290.36 693.2 283.4 690.13 276.47 685.91 269.11 680.96 261.64 674.96 253.98 668.03 245.82 660.55 237.4 652.3 228.76 643.43 219.7 634.24 210.52 624.59 201.35 614.61 192.13 604.52 183.2 594.23 174.78 583.83 166.82 573.47 159.69 563.08 153.57 552.72 148.23 542.47 144 532.27 140.89 522.16 138.38 512.18 136.73 502.26 135.73 492.42 134.7 482.69 133.82 473.01 132.9 463.38 131.26 453.82 129.25 444.28 126.85 434.75 123.63 425.25 120.22 415.74 116.83 406.23 113.31 396.72 110.41 387.19 108.44 377.65 107.21 368.11 107.35 358.78 108.85 349.68 111.19 340.58 114.65 331.71 118.96 323.11 123.43 314.52 128.2 306.2 132.98 298.19 137.15 290.19 140.99 282.51 144.42 275.18 147.02 267.87 149.34 260.91 151.51 254.32 153.29 247.74 155.34 241.53 157.88 235.68 160.68 229.83 164.33 224.32 168.92 219.16 174.18 213.94 180.47 209.01 187.72 204.38 195.62 199.6 204.3 195.06 213.61 190.73 223.27 186.18 233.31 181.78 243.55 177.51 253.82 172.95 264.11 168.48 274.36 164.08 284.42 159.36 294.38 154.71 304.22 150.13 313.83 145.26 323.36 140.49 332.87 135.89 342.18 131.08 351.55 126.51 361.02 122.25 370.38 117.95 379.93 114.08 389.72 110.73 399.46 107.53 409.5 104.98 419.84 103.18" stroke-dasharray="10 8" transform="rotate(0, 400, 400)" opacity="0.46"></path><path d="M422.42 113.87C432.42 112.41 442.33 111.79 452.11 111.99 461.86 112.59 471.42 114.02 480.7 116.26 489.85 118.86 498.59 122.22 506.79 126.26 514.72 130.59 521.94 135.52 528.32 140.99 534.28 146.61 539.27 152.68 543.24 159.12 546.79 165.58 549.38 172.33 551.11 179.31 552.79 186.21 554 193.29 555.06 200.5 556.85 207.55 559.17 214.72 562.45 221.98 567.38 229.05 573.87 236.22 582.15 243.47 592.39 250.54 604.31 257.72 617.6 265.01 631.78 272.14 646.17 279.42 659.9 286.86 672.24 294.17 682.26 301.67 689.12 309.37 692.71 316.98 692.45 324.82 688.4 332.9 681.68 340.92 672.58 349.2 662.22 357.74 652.59 366.26 644.37 375.06 638.81 384.14 637.27 393.21 639.67 402.58 645.94 412.25 655.77 421.92 667.31 431.66 679.06 441.46 690.13 451.26 698.54 461.11 703.3 470.98 704.34 480.85 700.97 490.72 693.57 500.55 683.09 510.37 670.16 520.11 655.93 529.73 641.57 539.29 627.94 548.67 615.85 557.8 606 566.81 598.53 575.49 593.41 583.77 590.8 591.83 589.99 599.41 590.41 606.41 592.99 616.11 596.48 631.41 595.05 636.77 592.64 639.68 588.63 641.77 583.12 643.03 576.59 644 568.79 644.24 559.98 643.8 550.48 643.29 540.32 642.28 529.74 640.89 518.84 639.73 507.79 638.43 496.75 637.11 485.63 636.37 474.65 635.85 463.9 635.66 453.18 636.32 442.71 637.45 432.54 639.08 422.39 641.66 412.53 644.74 402.97 648.24 393.41 652.51 384.34 656.9 375.75 661.23 367.11 665.9 358.89 670.19 351.08 673.96 343.17 677.59 335.59 680.41 328.3 682.33 320.83 683.75 313.56 684.1 306.41 683.34 298.97 681.92 291.53 679.37 284.03 675.73 276.14 671.44 268.08 666.13 259.83 659.93 251.17 653.19 242.33 645.69 233.33 637.55 224.11 629.06 214.9 620.09 205.85 610.74 196.94 601.23 188.48 591.47 180.66 581.55 173.41 571.62 167.07 561.6 161.76 551.57 157.21 541.6 153.71 531.65 151.24 521.75 149.25 511.95 147.98 502.2 147.23 492.53 146.31 482.94 145.45 473.41 144.44 463.93 142.67 454.52 140.51 445.14 137.93 435.81 134.58 426.51 131.05 417.22 127.57 407.96 123.98 398.72 121.02 389.48 118.98 380.27 117.68 371.05 117.73 362.08 119.13 353.36 121.38 344.64 124.76 336.17 129.02 327.97 133.51 319.78 138.34 311.88 143.25 304.28 147.63 296.69 151.71 289.41 155.39 282.46 158.24 275.52 160.75 268.91 163.03 262.66 164.79 256.39 166.68 250.46 168.88 244.88 171.18 239.25 174.17 233.94 177.96 228.95 182.3 223.86 187.6 219.04 193.84 214.47 200.73 209.75 208.46 205.23 216.91 200.9 225.82 196.34 235.24 191.91 245.01 187.6 254.97 183.01 265.09 178.49 275.27 174.05 285.41 169.31 295.52 164.64 305.56 160.06 315.47 155.21 325.29 150.48 335.06 145.92 344.69 141.19 354.3 136.69 363.94 132.52 373.49 128.31 383.12 124.53 392.85 121.26 402.55 118.14 412.41 115.65 422.41 113.87" stroke-dasharray="9 6" transform="rotate(4.04, 400, 400)" opacity="0.28"></path><path d="M421.32 124.55C430.9 123.11 440.23 122.46 449.27 122.6 458.28 123.11 466.94 124.42 475.17 126.49 483.27 128.91 490.85 132.06 497.79 135.88 504.5 139.97 510.48 144.66 515.64 149.87 520.52 155.26 524.56 161.08 527.77 167.28 530.82 173.54 533.2 180.09 535.09 186.89 537.24 193.64 539.32 200.59 541.63 207.68 544.9 214.65 548.97 221.75 554.17 228.94 560.96 235.98 569.22 243.11 579.03 250.33 590.36 257.39 602.91 264.55 616.27 271.82 629.93 278.94 643.25 286.19 655.43 293.57 665.93 300.84 673.93 308.27 678.82 315.87 680.69 323.39 679.09 331.12 674.22 339.04 667.22 346.92 658.35 355.02 648.66 363.36 639.91 371.67 632.64 380.24 627.9 389.05 626.87 397.86 629.4 406.93 635.4 416.27 644.63 425.6 655.44 434.99 666.52 444.39 677.14 453.81 685.5 463.24 690.69 472.65 692.62 482.06 690.55 491.44 684.69 500.75 675.84 510.02 664.4 519.19 651.32 528.19 637.66 537.12 624.17 545.84 611.64 554.28 600.78 562.59 591.84 570.54 584.97 578.08 580.4 585.4 577.66 592.23 576.37 598.5 578.28 613.84 576.96 628.52 572.02 630.41 567.46 631.21 561.65 631.37 554.77 630.96 547.21 630.52 538.83 629.67 529.82 628.5 520.43 627.59 510.66 626.58 500.69 625.57 490.56 625.12 480.39 624.87 470.28 624.92 460.14 625.75 450.13 627 440.32 628.69 430.53 631.24 420.93 634.21 411.57 637.55 402.2 641.59 393.26 645.71 384.72 649.78 376.15 654.16 367.92 658.2 360.01 661.77 352 665.24 344.24 667.98 336.67 669.91 328.91 671.42 321.25 671.96 313.63 671.5 305.73 670.46 297.77 668.37 289.71 665.27 281.32 661.58 272.78 656.93 264.08 651.42 255.1 645.4 246.02 638.63 236.92 631.22 227.76 623.45 218.76 615.17 210.08 606.48 201.7 597.61 193.89 588.43 186.84 579.05 180.41 569.61 174.92 560.04 170.45 550.41 166.68 540.8 163.88 531.17 161.99 521.57 160.44 512.02 159.47 502.51 158.88 493.06 158.01 483.68 157.08 474.34 155.95 465.08 154.02 455.86 151.68 446.69 148.93 437.57 145.45 428.49 141.81 419.45 138.25 410.46 134.62 401.48 131.61 392.53 129.52 383.64 128.16 374.75 128.12 366.12 129.4 357.76 131.55 349.39 134.82 341.29 139 333.47 143.46 325.65 148.34 318.12 153.34 310.89 157.9 303.66 162.21 296.73 166.16 290.13 169.31 283.51 172.07 277.21 174.53 271.24 176.39 265.24 178.24 259.55 180.25 254.18 182.19 248.74 184.64 243.59 187.75 238.71 191.26 233.73 195.63 228.98 200.86 224.46 206.69 219.77 213.38 215.26 220.82 210.91 228.78 206.33 237.36 201.87 246.39 197.52 255.74 192.9 265.37 188.35 275.19 183.88 285.1 179.13 295.07 174.46 305.03 169.89 314.97 165.07 324.86 160.39 334.68 155.89 344.44 151.23 354.14 146.83 363.79 142.74 373.4 138.64 383 134.96 392.58 131.77 402.15 128.74 411.73 126.3 421.31 124.56" stroke-dasharray="9 8" transform="rotate(8.08, 400, 400)" opacity="0.34"></path><path d="M416.73 135.24C425.81 133.81 434.53 133.14 442.84 133.22 451.11 133.64 458.93 134.83 466.23 136.74 473.42 138.99 480.03 141.93 485.99 145.51 491.79 149.36 496.91 153.8 501.32 158.75 505.59 163.87 509.21 169.44 512.24 175.39 515.35 181.41 518.1 187.75 520.68 194.34 523.76 200.91 527.08 207.68 530.9 214.62 535.78 221.48 541.6 228.47 548.56 235.56 556.92 242.53 566.55 249.6 577.4 256.76 589.31 263.79 601.94 270.91 614.86 278.12 627.58 285.21 639.5 292.41 649.94 299.72 658.52 306.94 664.56 314.3 667.63 321.8 667.98 329.23 665.29 336.83 659.81 344.61 652.72 352.33 644.22 360.26 635.25 368.39 627.39 376.5 621.04 384.82 617.07 393.37 616.5 401.9 619.13 410.67 624.86 419.66 633.51 428.65 643.61 437.66 654.01 446.66 664.16 455.66 672.4 464.64 677.9 473.58 680.6 482.51 679.69 491.37 675.28 500.13 668.02 508.84 658.12 517.41 646.35 525.79 633.65 534.09 620.63 542.14 608.05 549.89 596.58 557.51 586.56 564.76 578.25 571.58 571.94 578.19 567.36 584.32 564.28 589.89 562.04 609.78 553.17 618.48 545.91 618.18 540.14 617.86 533.48 617.18 526.09 616.25 518.29 615.59 509.95 614.86 501.23 614.14 492.31 613.96 483.16 613.97 473.89 614.24 464.56 615.23 455.21 616.58 445.91 618.31 436.61 620.82 427.38 623.69 418.26 626.87 409.15 630.68 400.35 634.55 391.84 638.35 383.3 642.45 375.02 646.24 366.94 649.6 358.78 652.9 350.76 655.55 342.84 657.46 334.76 659.04 326.7 659.73 318.61 659.52 310.3 658.8 301.9 657.13 293.4 654.53 284.66 651.39 275.8 647.36 266.87 642.5 257.81 637.18 248.75 631.12 239.81 624.42 230.97 617.37 222.44 609.79 214.36 601.78 206.69 593.56 199.69 585.01 193.51 576.21 187.97 567.32 183.36 558.26 179.73 549.09 176.69 539.91 174.52 530.68 173.12 521.43 171.93 512.22 171.16 503.02 170.64 493.86 169.74 484.74 168.71 475.66 167.39 466.65 165.28 457.67 162.75 448.75 159.83 439.89 156.24 431.06 152.51 422.28 148.88 413.56 145.23 404.86 142.19 396.22 140.06 387.65 138.65 379.08 138.52 370.77 139.68 362.75 141.7 354.72 144.84 346.96 148.9 339.49 153.31 332.01 158.17 324.82 163.24 317.92 167.96 311.01 172.49 304.4 176.7 298.09 180.15 291.76 183.22 285.72 185.94 279.98 188.96 271.46 194.66 255.71 198.28 248.4 201.09 243.5 204.63 238.8 208.92 234.3 213.72 229.63 219.34 225.11 225.71 220.74 232.6 216.14 240.15 211.65 248.26 207.26 256.74 202.61 265.62 198.04 274.78 193.55 284.15 188.81 293.67 184.15 303.27 179.6 312.94 174.84 322.61 170.22 332.24 165.78 341.87 161.23 351.45 156.92 360.93 152.94 370.41 148.95 379.82 145.37 389.12 142.28 398.43 139.33 407.64 136.96 416.72 135.24" stroke-dasharray="8 11" transform="rotate(12.12, 400, 400)" opacity="0.53"></path><path d="M409.4 145.93C417.94 144.52 426.05 143.83 433.69 143.85 441.3 144.19 448.4 145.25 454.97 147 461.46 149.07 467.38 151.81 472.71 155.15 477.96 158.77 482.64 162.94 486.76 167.61 490.9 172.47 494.6 177.77 497.97 183.45 501.59 189.22 505.13 195.3 508.78 201.66 513.06 208.02 517.79 214.59 523.18 221.35 529.61 228.05 536.97 234.89 545.37 241.85 554.89 248.72 565.41 255.69 576.76 262.76 588.71 269.71 600.93 276.76 612.96 283.89 624.4 290.92 634.7 298.05 643.3 305.28 649.97 312.42 654.17 319.69 655.6 327.08 654.67 334.4 651.12 341.87 645.27 349.49 638.24 357.06 630.21 364.81 622.01 372.72 615.04 380.62 609.57 388.69 606.31 396.96 606.16 405.21 608.86 413.66 614.32 422.29 622.41 430.92 631.82 439.54 641.56 448.12 651.2 456.69 659.25 465.22 664.97 473.66 668.29 482.1 668.41 490.43 665.33 498.61 659.59 506.76 651.24 514.73 640.89 522.48 629.34 530.15 617.08 537.55 604.81 544.63 593.14 551.57 582.46 558.14 573.09 564.29 565.34 570.24 559.12 575.72 554.34 580.66 546.76 598.12 539.29 605.72 533.94 605.52 529.64 605.32 524.47 604.84 518.53 604.14 512.24 603.74 505.31 603.28 497.86 602.84 490.21 602.91 482.18 603.15 473.87 603.62 465.48 604.75 456.91 606.18 448.23 607.94 439.53 610.4 430.76 613.16 421.97 616.18 413.18 619.77 404.56 623.39 396.12 626.94 387.65 630.77 379.31 634.31 371.09 637.46 362.79 640.59 354.55 643.13 346.34 645.01 337.99 646.62 329.62 647.43 321.19 647.43 312.61 646.99 303.94 645.69 295.2 643.53 286.34 640.9 277.43 637.43 268.54 633.19 259.66 628.51 250.91 623.13 242.4 617.13 234.12 610.79 226.27 603.91 218.98 596.59 212.17 589.04 206.09 581.14 200.85 572.96 196.22 564.66 192.47 556.15 189.62 547.5 187.25 538.81 185.61 530.03 184.6 521.21 183.66 512.4 183 503.56 182.47 494.75 181.48 485.96 180.27 477.19 178.75 468.48 176.44 459.8 173.71 451.16 170.63 442.59 166.93 434.04 163.13 425.55 159.47 417.13 155.81 408.72 152.76 400.38 150.6 392.13 149.14 383.87 148.92 375.89 149.95 368.19 151.83 360.48 154.82 353.04 158.73 345.88 163.05 338.72 167.87 331.83 172.95 325.23 177.78 318.61 182.5 312.27 186.95 306.21 190.73 300.12 194.12 294.31 197.14 288.77 200.55 280.52 206.28 265.14 209.43 257.94 211.72 253.1 214.57 248.43 218.06 243.94 221.93 239.28 226.53 234.75 231.84 230.35 237.62 225.74 244.08 221.22 251.12 216.8 258.56 212.14 266.48 207.56 274.77 203.07 283.32 198.35 292.13 193.72 301.09 189.21 310.19 184.51 319.37 179.97 328.55 175.62 337.8 171.17 347 166.97 356.12 163.1 365.26 159.23 374.3 155.77 383.19 152.77 392.1 149.91 400.85 147.61 409.39 145.93" stroke-dasharray="11 10" transform="rotate(16.16, 400, 400)" opacity="0.30"></path><path d="M400.53 156.62C408.52 155.23 416.06 154.52 423.13 154.48 430.18 154.75 436.75 155.69 442.82 157.29 448.85 159.19 454.39 161.71 459.44 164.82 464.5 168.19 469.14 172.1 473.4 176.49 477.8 181.07 481.98 186.08 486.06 191.47 490.5 196.97 495.08 202.78 499.97 208.87 505.52 214.99 511.64 221.34 518.47 227.88 526.19 234.39 534.75 241.05 544.16 247.84 554.37 254.56 565.24 261.4 576.57 268.33 588.07 275.18 599.43 282.12 610.23 289.14 620.15 296.07 628.69 303.1 635.42 310.22 640.27 317.27 642.79 324.42 642.81 331.67 640.84 338.87 636.66 346.19 630.63 353.63 623.83 361.04 616.36 368.59 608.96 376.27 602.86 383.94 598.22 391.76 595.63 399.73 595.84 407.69 598.6 415.8 603.79 424.06 611.33 432.33 620.07 440.54 629.15 448.68 638.26 456.82 646.07 464.87 651.9 472.81 655.73 480.74 656.73 488.53 654.86 496.15 650.55 503.73 643.71 511.11 634.83 518.24 624.58 525.29 613.33 532.05 601.67 538.49 590.2 544.8 579.26 550.73 569.22 556.24 560.41 561.59 552.86 566.47 546.59 570.85 532.54 586.23 523.93 593.04 519.75 592.98 514.45 592.8 499.77 591.93 490.65 591.66 484.18 591.96 477.24 592.41 469.9 593.06 462.47 594.3 454.72 595.81 446.72 597.58 438.7 599.98 430.48 602.63 422.08 605.49 413.69 608.87 405.33 612.25 397.02 615.55 388.7 619.11 380.4 622.41 372.12 625.35 363.79 628.3 355.45 630.72 347.07 632.55 338.62 634.16 330.12 635.06 321.55 635.23 312.92 635.03 304.23 634.04 295.52 632.28 286.8 630.1 278.12 627.15 269.57 623.48 261.14 619.41 252.95 614.68 245.12 609.34 237.62 603.68 230.63 597.49 224.26 590.85 218.41 583.99 213.29 576.74 209 569.2 205.25 561.52 202.3 553.61 200.14 545.52 198.33 537.37 197.11 529.09 196.37 520.75 195.57 512.38 194.94 503.97 194.31 495.56 193.16 487.15 191.75 478.75 189.99 470.39 187.47 462.04 184.56 453.73 181.32 445.48 177.53 437.25 173.69 429.07 170 420.97 166.35 412.87 163.32 404.85 161.14 396.91 159.64 388.97 159.33 381.3 160.23 373.91 161.96 366.51 164.77 359.37 168.51 352.51 172.69 345.63 177.42 339.02 182.48 332.68 187.38 326.32 192.24 320.22 196.91 314.38 200.98 308.51 204.7 302.88 208.07 297.51 211.96 289.48 218.11 274.39 221.07 267.28 224.2 260.15 233.18 246.41 239.38 239.72 244.1 235.1 249.47 230.57 255.42 226.13 261.74 221.48 268.59 216.9 275.85 212.42 283.41 207.74 291.29 203.16 299.4 198.7 307.71 194.09 316.15 189.63 324.66 185.38 333.27 181.05 341.89 176.98 350.45 173.22 359.06 169.49 367.57 166.14 375.94 163.24 384.33 160.49 392.54 158.26 400.52 156.62" stroke-dasharray="11 1" transform="rotate(20.200000000000003, 400, 400)" opacity="0.51"></path><path d="M391.58 167.3C399.02 165.94 406.06 165.22 412.7 165.13 419.33 165.32 425.54 166.15 431.35 167.6 437.16 169.32 442.59 171.64 447.69 174.52 452.85 177.64 457.76 181.27 462.48 185.38 467.42 189.68 472.32 194.39 477.31 199.48 482.71 204.68 488.4 210.21 494.49 216.01 501.21 221.86 508.51 227.95 516.46 234.24 525.11 240.52 534.43 246.96 544.34 253.54 554.73 260.08 565.45 266.75 576.25 273.5 586.88 280.2 597.04 286.99 606.35 293.86 614.59 300.67 621.35 307.57 626.27 314.54 629.45 321.45 630.5 328.46 629.35 335.55 626.58 342.6 622 349.75 615.98 357 609.53 364.21 602.7 371.55 596.11 378.98 590.85 386.41 587 393.95 585.01 401.61 585.54 409.26 588.33 417.04 593.25 424.91 600.27 432.79 608.35 440.59 616.79 448.28 625.36 455.97 632.87 463.55 638.73 470.99 642.93 478.41 644.68 485.66 643.87 492.72 640.87 499.74 635.49 506.54 628.09 513.07 619.23 519.53 609.16 525.7 598.39 531.52 587.44 537.24 576.64 542.59 566.35 547.52 556.89 552.31 548.38 556.66 540.92 560.54 532.04 565.88 520.37 573.86 516.63 576.51 511.12 579.51 500.1 580.68 494.45 580.42 487.93 580.51 471.75 581.43 462.29 582.55 455.75 583.89 448.8 585.45 441.49 587.23 434.16 589.56 426.51 592.1 418.58 594.8 410.65 597.97 402.63 601.12 394.56 604.18 386.5 607.49 378.36 610.54 370.17 613.28 361.97 616.04 353.7 618.33 345.38 620.09 337.03 621.68 328.62 622.64 320.18 622.94 311.75 622.94 303.31 622.23 294.93 620.81 286.63 619.03 278.47 616.55 270.51 613.4 262.78 609.9 255.38 605.76 248.42 601.05 241.84 596.04 235.83 590.52 230.46 584.55 225.59 578.36 221.43 571.78 218.03 564.88 215.09 557.84 212.84 550.54 211.25 543.04 209.87 535.47 208.95 527.74 208.37 519.9 207.6 512.04 206.89 504.1 206.1 496.13 204.74 488.15 203.09 480.16 201.08 472.19 198.35 464.22 195.26 456.28 191.9 448.38 188.04 440.5 184.17 432.66 180.49 424.89 176.87 417.12 173.86 409.43 171.68 401.81 170.15 394.2 169.76 386.84 170.52 379.74 172.08 372.64 174.7 365.79 178.24 359.2 182.25 352.59 186.85 346.24 191.83 340.13 196.74 334 201.69 328.11 206.53 322.47 210.87 316.78 214.91 311.32 218.62 306.08 223.06 298.23 229.97 283.39 232.97 276.34 235.83 269.26 243.3 255.53 248.34 248.82 252.13 244.2 256.5 239.67 261.42 235.23 266.66 230.6 272.41 226.05 278.61 221.6 285.08 216.98 291.93 212.46 299.07 208.08 306.4 203.57 313.95 199.23 321.63 195.09 329.43 190.89 337.29 186.95 345.15 183.32 353.07 179.72 360.95 176.5 368.7 173.71 376.49 171.05 384.13 168.9 391.57 167.31" stroke-dasharray="4 9" transform="rotate(24.24, 400, 400)" opacity="0.90"></path><path d="M384 177.99C390.94 176.66 397.57 175.93 403.9 175.8 410.22 175.91 416.25 176.63 422 177.93 427.78 179.48 433.32 181.6 438.68 184.25 444.14 187.12 449.52 190.48 454.87 194.3 460.46 198.3 466.17 202.71 472.09 207.49 478.41 212.38 485.08 217.6 492.19 223.09 499.81 228.65 507.95 234.45 516.61 240.46 525.74 246.47 535.32 252.67 545.23 259 555.31 265.32 565.4 271.77 575.27 278.31 584.71 284.82 593.42 291.42 601.08 298.11 607.61 304.74 612.63 311.46 615.88 318.26 617.58 325 617.38 331.83 615.32 338.73 611.99 345.6 607.23 352.55 601.38 359.57 595.38 366.57 589.23 373.66 583.47 380.84 579.02 388 575.89 395.25 574.46 402.58 575.27 409.91 578.06 417.32 582.71 424.8 589.22 432.29 596.68 439.66 604.49 446.9 612.5 454.14 619.67 461.24 625.46 468.18 629.92 475.09 632.28 481.82 632.39 488.34 630.58 494.82 626.56 501.06 620.6 507.02 613.17 512.92 604.4 518.52 594.73 523.79 584.6 528.96 574.27 533.77 564.11 538.18 554.42 542.48 545.35 546.37 537.07 549.81 526.48 554.58 510.86 561.72 505.27 564.12 497.28 567.05 485.3 568.74 480.16 568.81 474.45 569.23 460.3 570.76 451.92 572.1 446.11 573.52 439.87 575.11 433.2 576.88 426.52 579.15 419.45 581.57 412.03 584.12 404.61 587.08 397.03 590 389.32 592.83 381.62 595.89 373.8 598.71 365.89 601.24 357.99 603.81 350 605.96 341.96 607.64 333.94 609.19 325.89 610.18 317.85 610.58 309.88 610.73 301.96 610.25 294.17 609.13 286.54 607.71 279.12 605.64 271.99 602.96 265.14 599.97 258.69 596.39 252.72 592.27 247.14 587.88 242.14 582.99 237.78 577.66 233.85 572.12 230.58 566.2 227.98 559.94 225.72 553.55 224.04 546.87 222.88 539.98 221.8 533 221.04 525.84 220.49 518.55 219.66 511.22 218.8 503.79 217.78 496.3 216.18 488.8 214.27 481.26 212.01 473.71 209.08 466.16 205.83 458.61 202.35 451.1 198.45 443.59 194.58 436.12 190.92 428.7 187.36 421.29 184.39 413.93 182.22 406.64 180.66 399.36 180.2 392.31 180.82 385.51 182.21 378.7 184.62 372.13 187.94 365.79 191.74 359.44 196.17 353.32 201.02 347.44 205.89 341.52 210.88 335.82 215.83 330.35 220.38 324.82 224.7 319.5 228.74 314.39 233.75 306.7 241.66 292.07 244.94 285.08 247.79 278.04 254.41 264.35 258.59 257.64 261.66 253.05 265.21 248.53 269.24 244.11 273.5 239.52 278.25 235.02 283.43 230.62 288.84 226.08 294.64 221.64 300.78 217.36 307.09 212.96 313.67 208.74 320.44 204.73 327.33 200.68 334.35 196.88 341.43 193.38 348.58 189.93 355.73 186.84 362.85 184.16 369.99 181.61 377.05 179.54 383.99 177.99" stroke-dasharray="1 3" transform="rotate(28.28, 400, 400)" opacity="0.72"></path><path d="M379.04 188.68C385.53 187.38 391.84 186.65 397.96 186.47 404.09 186.52 410.05 187.13 415.87 188.29 421.73 189.68 427.51 191.6 433.23 194.01 439.09 196.64 444.98 199.73 450.97 203.26 457.2 206.96 463.64 211.06 470.34 215.51 477.38 220.08 484.78 224.97 492.56 230.14 500.72 235.39 509.26 240.87 518.16 246.57 527.31 252.29 536.67 258.2 546.09 264.26 555.43 270.31 564.53 276.5 573.15 282.79 581.16 289.07 588.29 295.44 594.27 301.9 599.14 308.32 602.53 314.83 604.3 321.4 604.75 327.94 603.58 334.55 600.85 341.23 597.18 347.87 592.42 354.59 586.89 361.37 581.43 368.12 576 374.95 571.05 381.83 567.37 388.7 564.91 395.64 563.97 402.63 565.03 409.62 567.79 416.66 572.17 423.74 578.19 430.82 585.05 437.76 592.24 444.56 599.69 451.34 606.48 457.97 612.14 464.41 616.75 470.83 619.57 477.06 620.45 483.05 619.68 489.01 616.91 494.72 612.31 500.16 606.31 505.54 598.91 510.62 590.46 515.37 581.37 520.05 571.82 524.38 562.14 528.34 552.61 532.2 543.4 535.69 534.69 538.77 526.64 541.76 519.26 544.36 512.59 546.55 504.06 549.54 490.77 553.62 485.4 554.82 476.08 556.41 460.74 558.11 454.46 558.84 447.72 560.17 431.99 563.98 423.04 566.55 416.92 568.73 410.4 571.04 403.51 573.43 396.62 576.19 389.53 578.9 382.29 581.5 375.07 584.32 367.71 586.91 360.25 589.24 352.83 591.62 345.32 593.63 337.79 595.21 330.32 596.7 322.85 597.7 315.45 598.16 308.16 598.44 300.99 598.14 294.02 597.27 287.24 596.15 280.73 594.45 274.57 592.19 268.71 589.66 263.27 586.59 258.34 583.01 251.75 577.04 241.98 562.62 238.79 554.35 237.07 548.59 235.8 542.54 234.92 536.26 233.99 529.89 233.27 523.31 232.64 516.59 231.66 509.82 230.57 502.92 229.29 495.94 227.42 488.94 225.25 481.87 222.74 474.78 219.63 467.68 216.24 460.57 212.68 453.46 208.77 446.36 204.92 439.27 201.32 432.22 197.83 425.18 194.91 418.17 192.76 411.22 191.19 404.27 190.65 397.54 191.14 391.02 192.35 384.51 194.54 378.2 197.61 372.12 201.18 366.02 205.38 360.12 210.06 354.44 214.83 348.73 219.79 343.21 224.79 337.88 229.49 332.52 234.03 327.33 238.35 322.32 243.92 314.79 252.97 300.37 256.68 293.43 259.79 286.45 266.18 272.83 269.87 266.16 273.91 259.37 284.16 246.01 290.42 239.47 294.89 235.02 299.74 230.7 304.94 226.52 310.28 222.27 315.91 218.18 321.79 214.31 327.77 210.41 333.93 206.77 340.23 203.42 346.59 200.12 353.03 197.16 359.52 194.6 366.02 192.17 372.54 190.18 379.03 188.68" stroke-dasharray="6 4" transform="rotate(32.32, 400, 400)" opacity="0.35"></path><path d="M377.51 199.37C383.62 198.11 389.66 197.37 395.64 197.15 401.64 197.14 407.6 197.66 413.53 198.67 419.52 199.9 425.54 201.63 431.62 203.82 437.83 206.2 444.17 209.03 450.67 212.27 457.38 215.67 464.33 219.45 471.54 223.57 479 227.81 486.77 232.37 494.82 237.19 503.08 242.1 511.59 247.25 520.25 252.61 528.97 258.02 537.67 263.6 546.22 269.35 554.49 275.1 562.31 281 569.49 287.01 575.97 293.01 581.49 299.11 585.85 305.3 589.17 311.47 591.13 317.72 591.66 324.03 591.1 330.33 589.2 336.69 586.05 343.1 582.26 349.49 577.67 355.94 572.57 362.43 567.71 368.91 563.01 375.45 558.84 382.01 555.89 388.58 554.05 395.18 553.55 401.81 554.8 408.44 557.52 415.1 561.63 421.76 567.18 428.43 573.46 434.94 580.04 441.28 586.93 447.62 593.3 453.78 598.77 459.75 605 468.56 607.37 485.01 603.21 492.57 598.57 497.47 592.55 502.08 585.41 506.37 577.51 510.61 568.96 514.51 560.05 518.08 551.03 521.57 542.06 524.72 533.33 527.5 524.99 530.22 517.1 532.58 509.74 534.59 499.86 537.38 483.51 541.35 476.69 542.63 470.73 543.8 459.57 545.45 453.93 546.13 448.25 547.14 435.52 549.67 428.33 551.35 423.41 552.87 418.12 554.49 412.47 556.21 406.81 558.31 400.79 560.5 394.42 562.74 388.05 565.31 381.5 567.8 374.81 570.19 368.14 572.77 361.36 575.15 354.5 577.28 347.69 579.47 340.83 581.32 333.99 582.8 327.23 584.22 320.53 585.19 313.94 585.7 307.49 586.06 301.22 585.91 295.19 585.25 286.61 583.7 271.64 577.68 265.48 573.29 260.26 568.12 252.75 555.45 250.35 548.09 248.49 540.22 245.92 523.06 244.71 513.92 243.51 507.71 242.15 501.37 240.57 494.92 238.43 488.44 235.99 481.87 233.26 475.26 229.99 468.63 226.5 461.97 222.89 455.29 218.99 448.61 215.2 441.93 211.66 435.27 208.26 428.61 205.42 421.97 203.3 415.36 201.72 408.76 201.11 402.35 201.47 396.13 202.5 389.91 204.46 383.87 207.27 378.03 210.57 372.18 214.53 366.5 218.98 361.02 223.59 355.5 228.45 350.16 233.42 344.98 238.19 339.77 242.89 334.71 247.43 329.8 251.55 324.84 255.43 320.01 259.08 315.32 263.71 308.23 271.54 294.46 275.04 287.76 278.26 280.98 285.4 267.67 289.6 261.15 294.17 254.55 305.2 241.73 311.64 235.59 316.14 231.48 320.95 227.55 326.03 223.84 331.18 220.11 336.56 216.63 342.14 213.43 347.76 210.29 353.54 207.47 359.45 205.03 365.37 202.71 371.39 200.81 377.5 199.37" stroke-dasharray="4 7" transform="rotate(36.36, 400, 400)" opacity="0.58"></path><path d="M379.66 210.05C385.44 208.84 391.27 208.1 397.13 207.85 403.01 207.79 408.96 208.2 414.98 209.09 427.18 211.44 439.93 215.59 453.36 221.33 467.36 227.68 482.29 235.41 497.97 244.26 513.9 253.45 529.91 263.56 544.98 274.33 558.46 285.2 569.17 296.61 575.82 308.37 578.87 320.12 577.17 332.17 571.07 344.4 563.45 356.6 554.63 368.99 546.87 381.45 544.58 387.67 543.3 393.92 543.18 400.18 544.58 406.44 547.25 412.7 551.09 418.95 556.19 425.19 561.9 431.28 567.9 437.18 574.24 443.08 580.17 448.79 585.38 454.29 593.73 465.26 596.51 475.34 593.3 484.38 585.42 493.27 572.89 501.03 557.48 507.53 540.92 513.85 524.24 518.9 508.58 522.68 494.51 526.4 482.1 529.03 471.16 530.67 461.76 532.67 453.02 534.07 444.39 535.07 436.35 537 427.68 538.95 418.12 541.05 410.85 543.4 394.91 548.93 386.24 552.05 380.36 554.43 374.36 556.72 368.27 558.9 362.19 561.26 356.05 563.42 349.89 565.36 337.7 569.4 325.65 572.08 314.16 573.22 303.21 573.91 293.25 572.75 284.72 569.76 277.07 566.06 271.1 560.55 266.95 553.47 263.33 545.79 261.03 536.74 259.63 526.65 257.35 516.2 254.82 504.94 251.57 493.14 246.24 481.21 239.91 468.91 232.97 456.45 229.12 450.21 225.41 443.95 221.96 437.69 218.67 431.43 215.92 425.16 213.84 418.92 212.27 412.67 211.59 406.58 211.82 400.66 212.67 394.74 214.39 388.98 216.93 383.39 223.39 372.16 232.01 361.53 241.75 351.53 251.08 341.37 260.14 331.72 268.48 322.57 275.15 313.14 281.11 304.09 286.67 295.44 291.08 286.4 295.85 277.66 301.32 269.32 306.57 260.6 312.99 252.28 320.6 244.56 328.36 236.65 337.3 229.51 347.23 223.42 352.22 220.43 357.44 217.77 362.85 215.46 368.27 213.25 373.87 211.44 379.65 210.06" stroke-dasharray="10 4" transform="rotate(40.400000000000006, 400, 400)" opacity="0.65"></path><path d="M385.14 220.74C396.13 218.55 407.63 218.19 419.59 219.54 431.73 221.57 444.55 225.28 458.02 230.46 471.8 236.21 486.24 243.26 500.94 251.39 515.43 259.86 529.4 269.22 541.88 279.25 552.56 289.42 560.33 300.13 564.29 311.19 565.28 322.29 562.34 333.69 556.02 345.24 549.01 356.79 541.42 368.5 535.12 380.24 532.92 391.98 534.64 403.75 540.55 415.4 550.74 427.06 561.97 438.01 571.99 448.16 580.3 458.26 584.01 467.48 582.59 475.71 577.11 483.83 567.17 490.89 554.12 496.81 539.41 502.61 523.84 507.3 508.54 510.87 494.06 514.47 480.74 517.13 468.67 518.95 457.84 521.15 447.83 522.85 438.27 524.19 429.34 526.38 420.23 528.55 410.7 530.79 401.29 534.17 391.16 537.74 380.31 541.37 369.45 545.97 358.43 550.08 347.52 553.48 336.76 557.15 326.38 559.62 316.73 560.73 307.54 561.51 299.41 560.65 292.68 558.17 286.56 555.11 281.91 550.43 278.74 544.29 275.7 537.63 273.57 529.69 271.95 520.7 269.24 511.4 266.12 501.26 262.24 490.52 256.48 479.66 249.9 468.35 242.93 456.81 235.34 445.24 228.81 433.5 224.38 421.74 221.81 409.98 222.62 398.73 226.6 388.07 232.46 377.35 240.5 367.14 249.82 357.45 259.06 347.63 268.32 338.23 277.11 329.28 284.52 320.08 291.28 311.22 297.55 302.72 302.62 293.9 307.77 285.38 313.3 277.26 318.37 268.83 324.3 260.83 331.22 253.43 338.09 245.91 346.07 239.14 355.09 233.37 364.12 227.82 374.15 223.52 385.13 220.74" stroke-dasharray="6 7" transform="rotate(44.44, 400, 400)" opacity="0.23"></path><path d="M393.05 231.43C403.51 229.32 414.62 228.88 426.28 230.02 438.05 231.76 450.48 235.03 463.38 239.67 476.36 244.82 489.64 251.2 502.73 258.6 515.27 266.33 526.84 274.92 536.59 284.17 544.56 293.58 549.69 303.54 551.42 313.85 550.88 324.22 547.21 334.89 541.05 345.71 534.84 356.55 528.54 367.53 523.61 378.5 522.35 389.48 524.45 400.45 530.01 411.26 539.25 422.08 549.39 432.19 558.62 441.51 566.72 450.78 571.08 459.22 571.13 466.73 567.77 474.15 560.29 480.61 549.67 486.05 537.16 491.43 523.23 495.83 508.94 499.26 494.83 502.78 481.32 505.5 468.73 507.51 457 509.91 446.07 511.87 435.78 513.51 426.03 515.9 416.46 518.24 406.87 520.59 397.42 523.9 387.67 527.31 377.6 530.68 367.54 534.89 357.65 538.6 348.13 541.65 338.73 544.96 329.9 547.2 321.94 548.24 311.02 548.75 295.62 541.89 291.12 534.61 288.31 528.88 286.05 521.95 284 514.01 280.75 505.79 277 496.73 272.53 487.04 266.42 477.23 259.69 466.91 252.77 456.29 245.43 445.64 239.18 434.74 234.91 423.73 232.34 412.72 232.86 402.11 236.31 391.97 241.53 381.79 248.91 372.01 257.68 362.68 266.64 353.23 275.89 344.13 284.93 335.41 292.92 326.5 300.39 317.87 307.36 309.59 313.22 301.06 318.97 292.82 324.85 284.97 330.13 276.9 336 269.26 342.63 262.21 349.07 255.1 356.46 248.73 364.86 243.31 373.2 238.1 382.6 234.06 393.05 231.43" stroke-dasharray="6 10" transform="rotate(48.48, 400, 400)" opacity="0.42"></path><path d="M402.1 242.12C412.02 240.1 422.58 239.6 433.62 240.53 444.71 242 456.29 244.86 468.1 248.97 479.79 253.54 491.41 259.25 502.47 265.92 512.8 272.9 521.85 280.71 528.97 289.15 534.48 297.77 537.41 306.93 537.46 316.44 535.89 326.03 531.95 335.92 526.27 345.95 521.01 356.02 515.98 366.21 512.31 376.38 511.89 386.57 514.26 396.72 519.47 406.69 527.79 416.66 536.87 425.96 545.29 434.49 553.02 443 557.77 450.71 558.97 457.57 557.42 464.38 552.19 470.32 543.95 475.36 533.78 480.38 521.86 484.56 509.09 487.91 496.02 491.38 483.04 494.18 470.58 496.37 458.6 498.93 447.27 501.12 436.58 503 426.32 505.55 416.43 508.02 406.82 510.42 397.35 513.64 387.93 516.87 378.56 519.99 369.2 523.82 360.31 527.16 352.02 529.86 343.8 532.82 336.31 534.82 329.74 535.77 320.65 536.35 307.85 530.69 303.75 524.46 300.85 519.57 298.23 513.55 295.59 506.58 291.76 499.37 287.41 491.34 282.42 482.66 276.07 473.86 269.28 464.53 262.49 454.83 255.47 445.09 249.54 435.04 245.45 424.81 242.9 414.57 243.14 404.62 246.05 395.03 250.62 385.42 257.27 376.12 265.37 367.18 273.87 358.14 282.9 349.39 291.96 340.97 300.31 332.39 308.31 324.08 315.9 316.08 322.52 307.89 328.94 299.98 335.34 292.47 341.1 284.81 347.21 277.57 353.85 270.92 360.22 264.25 367.36 258.28 375.36 253.22 383.28 248.37 392.18 244.6 402.1 242.12" stroke-dasharray="2 11" transform="rotate(52.52, 400, 400)" opacity="0.39"></path><path d="M410.8 252.8C420.15 250.89 429.98 250.34 440.12 251.08 450.25 252.29 460.62 254.76 470.93 258.36 481.01 262.37 490.7 267.43 499.54 273.37 507.62 279.61 514.29 286.62 519.06 294.24 522.54 302.05 523.78 310.37 522.69 319.04 520.59 327.8 516.76 336.87 511.8 346.07 507.57 355.33 503.77 364.69 501.25 374.04 501.53 383.4 504.09 392.73 508.93 401.86 516.38 411 524.44 419.5 532.01 427.3 539.26 435.08 544.16 442.13 546.21 448.41 546.1 454.67 542.83 460.16 536.81 464.87 528.98 469.59 519.26 473.59 508.36 476.88 496.86 480.32 485 483.19 473.29 485.54 461.72 488.24 450.55 490.6 439.94 492.69 429.59 495.34 419.67 497.87 410.2 500.29 400.85 503.4 391.77 506.44 383.03 509.3 374.29 512.77 366.24 515.74 358.95 518.11 348.46 521.61 331.85 523.93 325.83 522.33 320.42 519.23 311.41 507.16 306.55 498.48 302.15 492.2 297.27 485.13 291.88 477.41 285.4 469.58 278.68 461.2 272.11 452.4 265.45 443.58 259.87 434.38 255.99 424.93 253.47 415.47 253.46 406.21 255.86 397.22 259.76 388.2 265.63 379.42 272.96 370.92 280.85 362.35 289.44 354.01 298.28 345.95 306.72 337.77 315.01 329.83 323 322.18 330.25 314.4 337.29 306.89 344.21 299.78 350.55 292.56 357.06 285.77 363.89 279.55 370.42 273.34 377.52 267.8 385.29 263.12 392.97 258.63 401.46 255.13 410.8 252.8" stroke-dasharray="8 2" transform="rotate(56.56, 400, 400)" opacity="0.52"></path><path d="M417.74 263.49C426.45 261.68 435.39 261.1 444.41 261.67 453.39 262.64 462.32 264.74 470.93 267.86 479.26 271.33 486.95 275.75 493.64 280.99 499.65 286.49 504.24 292.71 507.12 299.51 509.04 306.48 509.14 313.95 507.43 321.76 505.21 329.67 501.81 337.87 497.73 346.22 494.56 354.62 491.91 363.14 490.4 371.64 491.25 380.16 493.93 388.65 498.39 396.96 505 405.28 512.09 413.01 518.82 420.11 525.47 427.2 530.32 433.64 532.91 439.41 533.91 445.16 532.26 450.26 528.2 454.68 522.56 459.14 515.04 462.99 506.19 466.24 496.58 469.64 486.31 472.57 475.83 475.04 465.26 477.84 454.81 480.33 444.73 482.55 434.77 485.25 425.19 487.81 416.09 490.2 407.06 493.16 398.43 496 390.27 498.62 382.11 501.73 374.76 504.35 368.23 506.42 358.8 509.47 343.91 511.5 338.25 510.15 332.78 507.57 322.53 497.26 316.75 489.75 311.86 484.32 306.57 478.13 300.92 471.31 294.44 464.41 287.88 456.94 281.61 449.03 275.38 441.09 270.18 432.75 266.53 424.09 264.07 415.44 263.83 406.88 265.73 398.52 268.97 390.14 274.04 381.92 280.53 373.92 287.67 365.87 295.63 358 304.01 350.38 312.26 342.66 320.54 335.16 328.68 327.94 336.31 320.62 343.78 313.57 351.1 306.91 357.96 300.19 364.86 293.88 371.91 288.12 378.69 282.39 385.84 277.3 393.43 272.99 400.94 268.87 409.03 265.65 417.74 263.49" stroke-dasharray="5 6" transform="rotate(60.599999999999994, 400, 400)" opacity="0.16"></path><path d="M421.77 274.18C429.76 272.48 437.72 271.88 445.51 272.3 453.23 273.05 460.66 274.8 467.56 277.47 474.19 280.43 480.04 284.24 484.83 288.8 489.09 293.58 492.05 299.03 493.55 305.01 494.43 311.15 493.88 317.76 492.02 324.7 490.02 331.74 487.26 339.06 484.16 346.54 482.02 354.07 480.41 361.72 479.76 369.37 481.06 377.03 483.79 384.68 487.86 392.19 493.67 399.69 499.84 406.69 505.72 413.12 514.02 422.49 520.76 438.38 518.14 444.9 514.43 449.12 508.98 452.83 502.17 456.03 494.58 459.38 486.14 462.33 477.25 464.89 468.09 467.73 458.81 470.29 449.69 472.59 440.55 475.29 431.67 477.82 423.19 480.15 414.75 482.94 406.69 485.56 399.11 487.93 391.53 490.7 384.75 493 378.75 494.77 370.05 497.39 355.95 499.1 350.2 497.93 344.37 495.75 332.67 486.96 326.07 480.49 320.82 475.81 315.28 470.44 309.53 464.46 303.19 458.41 296.92 451.81 291.03 444.76 285.26 437.68 280.47 430.18 277.07 422.33 274.69 414.48 274.26 406.66 275.69 398.96 278.29 391.26 282.55 383.65 288.15 376.21 294.43 368.73 301.59 361.4 309.3 354.27 317.07 347.09 325.06 340.09 333.04 333.36 340.73 326.57 348.35 320.04 355.85 313.88 363.01 307.69 370.16 301.9 377.33 296.63 384.29 291.41 391.44 286.77 398.82 282.85 406.12 279.11 413.78 276.17 421.77 274.18" stroke-dasharray="0 8" transform="rotate(64.64, 400, 400)" opacity="0.79"></path><path d="M422.23 284.87C429.43 283.3 436.36 282.68 442.91 282.97 452.4 284.24 468.03 291.3 473.48 296.82 477.32 303.25 478.81 318.99 476.78 327.94 475.26 334.11 473.27 340.54 471.16 347.15 469.96 353.79 469.26 360.57 469.32 367.37 470.95 374.18 473.64 380.99 477.32 387.7 482.38 394.41 487.66 400.69 492.73 406.49 500.12 414.95 507.62 429.51 506.72 435.62 504.61 439.6 500.96 443.15 496.04 446.29 490.42 449.56 483.86 452.49 476.7 455.08 469.21 457.9 461.4 460.48 453.52 462.8 445.56 465.44 437.68 467.89 430.04 470.13 422.41 472.73 415.06 475.12 408.09 477.24 401.12 479.69 394.84 481.67 389.22 483.17 381 485.38 367.09 486.74 361.01 485.69 354.69 483.83 341.65 476.33 334.46 470.77 329.02 466.76 323.41 462.12 317.73 456.92 311.67 451.67 305.79 445.89 300.35 439.66 295.1 433.41 290.74 426.74 287.61 419.7 285.34 412.67 284.74 405.61 285.75 398.61 287.74 391.62 291.21 384.67 295.89 377.84 301.24 371 307.48 364.26 314.34 357.7 321.4 351.11 328.79 344.69 336.32 338.51 343.74 332.29 351.18 326.33 358.54 320.72 365.71 315.1 372.85 309.85 379.93 305.09 386.88 300.39 393.88 296.22 400.92 292.7 407.92 289.33 415.04 286.68 422.23 284.87" stroke-dasharray="8 3" transform="rotate(68.68, 400, 400)" opacity="0.91"></path><path d="M419.06 295.55C431.76 292.89 442.63 293.56 450.92 297.06 458.63 301.32 463 308.18 463.67 316.89 463.97 326.06 461.82 336.75 458.78 348.17 458.98 359.75 461.47 371.83 466.78 383.69 476.32 395.54 485.14 405.99 490.93 414.78 495.07 423.66 493.79 431.1 487.74 437.04 479.44 443.46 467.96 448.86 455.14 453.18 441.84 458.48 428.35 463.08 415.75 466.55 403.14 471.03 392.44 473.62 383.47 474.2 373.91 474.96 365.13 473.2 356.68 469.02 346.63 464.63 336.1 457.77 325.56 448.83 314.2 439.75 304.38 428.77 298.15 416.32 294.68 403.87 296.92 391.2 303.85 378.9 313.14 366.57 325.38 354.54 338.84 343.41 352.47 332.25 366.39 322.04 379.89 313.52 393.15 305.25 406.35 298.99 419.06 295.55" stroke-dasharray="0 5" transform="rotate(72.72, 400, 400)" opacity="0.16"></path><path d="M412.76 306.24C423.72 303.82 432.56 304.23 438.89 307.05 444.91 310.46 448.13 316.09 448.6 323.37 449.27 331 448.37 340.01 447.05 349.74 448.43 359.6 451.42 369.99 456.24 380.3 464.24 390.62 471.55 399.85 476.6 407.77 480.87 415.77 481.05 422.66 477.36 428.31 472.08 434.36 463.78 439.53 453.75 443.71 443.26 448.63 431.98 452.81 420.82 455.87 409.66 459.68 399.61 461.78 390.63 462.13 381.2 462.66 372.1 461.09 363.19 457.48 353.2 453.76 342.95 447.95 333.07 440.31 322.86 432.58 314.2 423.14 308.69 412.32 305.37 401.49 306.75 390.35 312.08 379.48 319.42 368.61 329.55 357.97 341.05 348.13 353.04 338.31 365.56 329.36 377.76 321.92 389.93 314.73 401.81 309.27 412.76 306.24" stroke-dasharray="9 3" transform="rotate(76.76, 400, 400)" opacity="0.41"></path><path d="M404.38 316.93C417.18 314.87 432.05 322.07 434.24 330.25 435.54 336.43 435.88 343.83 436 351.93 438.2 360.13 441.44 368.87 445.7 377.68 452.26 386.48 458.13 394.51 462.31 401.52 466.26 408.62 467.23 414.86 465.21 420.11 462.19 425.66 456.53 430.48 449.03 434.39 441.15 438.84 432.09 442.55 422.49 445.18 412.89 448.36 403.66 450.01 394.95 450.16 385.95 450.49 376.98 449.06 368.15 445.96 358.69 442.82 349.19 437.94 340.3 431.51 331.42 425.03 324 417.05 319.23 407.83 316.13 398.61 316.79 389.06 320.67 379.69 326.14 370.34 334.07 361.18 343.39 352.71 353.32 344.3 363.93 336.65 374.38 330.32 384.94 324.19 395.17 319.54 404.38 316.93" stroke-dasharray="5 10" transform="rotate(80.80000000000001, 400, 400)" opacity="0.85"></path><path d="M395.27 327.62C405.71 325.77 418.36 331.16 421.11 337.56 423.05 342.41 424.41 348.3 425.62 354.84 428.29 361.44 431.51 368.59 435.16 375.91 440.37 383.23 444.9 390.02 448.15 396.08 452.08 404.95 448.32 419.53 441.09 425.21 435.44 429.1 428.44 432.29 420.48 434.49 412.51 437.07 404.38 438.32 396.36 438.31 388.2 438.45 379.89 437.16 371.72 434.53 363.28 431.9 354.95 427.87 347.34 422.57 339.91 417.25 333.77 410.68 329.77 403.05 326.97 395.42 327.07 387.48 329.67 379.68 333.44 371.9 339.26 364.27 346.35 357.23 354 350.26 362.41 343.93 370.84 338.7 379.41 333.65 387.76 329.8 395.27 327.62" stroke-dasharray="6 6" transform="rotate(84.84, 400, 400)" opacity="0.38"></path><path d="M386.94 338.3C398.71 335.44 406.09 338.42 409.61 345.33 414.87 352.71 419.77 363.36 424.62 375.06 433.33 386.76 438.19 397.28 437.3 405.26 435.64 413.77 427.7 420.53 415.11 423.8 402.51 428.02 388.02 427.65 374.22 423.27 360.19 418.98 347.36 410.26 340.31 398.15 336.38 386.03 340.85 372.95 350.36 361.74 361.58 350.76 375.17 342 386.94 338.3" stroke-dasharray="9 9" transform="rotate(88.88, 400, 400)" opacity="0.70"></path><path d="M380.75 348.99C389.44 346.72 395.84 348.68 399.99 353.57 405.24 358.71 410.11 366.4 414.08 375.18 420.19 383.95 423.34 392.16 422.64 398.57 421.83 405.27 416.53 410.61 407.27 413.12 397.99 416.15 386.75 415.67 376.04 412.24 365.51 408.89 356.06 402.34 350.85 393.32 347.46 384.29 349.78 374.59 355.78 366.32 362.83 358.2 372.05 351.74 380.75 348.99" stroke-dasharray="9 8" transform="rotate(92.92, 400, 400)" opacity="0.88"></path><path d="M377.71 359.68C389.21 356.71 398.92 364.52 403.55 376.25 411.84 387.97 410.33 399.26 398.23 402.43 386.13 406.52 368.85 400.69 361.39 388.74 357.23 376.79 366.19 363.51 377.71 359.68" stroke-dasharray="7 10" transform="rotate(96.96, 400, 400)" opacity="0.16"></path></g></svg>