<svg fill="none" height="24" viewBox="0 0 24 24" width="24" xmlns="http://www.w3.org/2000/svg"><g fill="#292d32"><path d="m21.25 9.14969c-2.31-3.63-5.69-5.72-9.25-5.72-1.78 0-3.51.52-5.09 1.49-1.58.98-3 2.41-4.16 4.23-1 1.57001-1 4.12001 0 5.69001 2.31 3.64 5.69 5.72 9.25 5.72 1.78 0 3.51-.52 5.09-1.49 1.58-.98 3-2.41 4.16-4.23 1-1.56 1-4.12 0-5.69001zm-9.25 6.89001c-2.24 0-4.04-1.81-4.04-4.04 0-2.23001 1.8-4.04001 4.04-4.04001s4.04 1.81 4.04 4.04001c0 2.23-1.8 4.04-4.04 4.04z"/><path d="m11.9984 9.14062c-1.57 0-2.84996 1.27998-2.84996 2.85998 0 1.57 1.27996 2.85 2.84996 2.85s2.86-1.28 2.86-2.85-1.29-2.85998-2.86-2.85998z"/></g></svg>